{"title":"Katy Perry - The One That Got Away (39th Annual American Music A","uid":7004861,"size":794791996,"categoryP":"video","categoryS":"other","magnet":"?xt=urn:btih:66ce953bf8a866e97cef08d133ae5f8d58314d10&amp;dn=Katy+Perry+-+The+One+That+Got+Away+%2839th+Annual+American+Music+A&amp;tr=udp%3A%2F%2Ftracker.openbittorrent.com%3A80&amp;tr=udp%3A%2F%2Fopen.demonii.com%3A1337&amp;tr=udp%3A%2F%2Ftracker.coppersurfer.tk%3A6969&amp;tr=udp%3A%2F%2Fexodus.desync.com%3A6969","seeders":2,"leechers":0,"uploader":null,"files":1,"time":1328231086,"description":"Format                           : MPEG-TS\nFile size                        : 758 MiB\nDuration                         : 5mn 54s\nOverall bit rate mode            : Variable\nOverall bit rate                 : 17.9 Mbps\nMaximum Overall bit rate         : 35.5 Mbps\n\nVideo\nID                               : 4113 (0x1011)\nMenu ID                          : 1 (0x1)\nFormat                           : MPEG Video\nFormat version                   : Version 2\nFormat profile                   : Main@High\nFormat settings, BVOP            : Yes\nFormat settings, Matrix          : Custom\nFormat settings, GOP             : M=3, N=15\nCodec ID                         : 2\nDuration                         : 5mn 54s\nBit rate mode                    : Variable\nBit rate                         : 16.7 Mbps\nMaximum bit rate                 : 17.1 Mbps\nWidth                            : 1 920 pixels\nHeight                           : 1 080 pixels\nDisplay aspect ratio             : 16:9\nFrame rate                       : 29.970 fps\nColor space                      : YUV\nChroma subsampling               : 4:2:0\nBit depth                        : 8 bits\nScan type                        : Interlaced\nScan order                       : Top Field First\nCompression mode                 : Lossy\nBits/(Pixel*Frame)               : 0.268\nStream size                      : 704 MiB (93%)\n\nAudio\nID                               : 4352 (0x1100)\nMenu ID                          : 1 (0x1)\nFormat                           : AC-3\nFormat/Info                      : Audio Coding 3\nMode extension                   : CM (complete main)\nCodec ID                         : 129\nDuration                         : 5mn 54s\nBit rate mode                    : Constant\nBit rate                         : 384 Kbps\nChannel(s)                       : 6 channels\nChannel positions                : Front: L C R, Side: L R, LFE\nSampling rate                    : 48.0 KHz\nBit depth                        : 16 bits\nCompression mode                 : Lossy\nDelay relative to video          : -124ms\nStream size                      : 16.2 MiB (2%)\nLanguage                         : English\n\nText #1\nID                               : 4113 (0x1011)-608-1\nMenu ID                          : 1 (0x1)\nFormat                           : EIA-608\nMuxing mode                      : A/53 / DTVCC Transport\nMuxing mode, more info           : Muxed in Video #1\nDuration                         : 5mn 54s\nBit rate mode                    : Constant\nStream size                      : 0.00 Byte (0%)\n\nText #2\nID                               : 4113 (0x1011)-1\nMenu ID                          : 1 (0x1)\nFormat                           : EIA-708\nMuxing mode                      : A/53 / DTVCC Transport\nMuxing mode, more info           : Muxed in Video #1\nDuration                         : 5mn 54s\nBit rate mode                    : Constant\nStream size                      : 0.00 Byte (0%)\n","torrent":{"xt":"urn:btih:66ce953bf8a866e97cef08d133ae5f8d58314d10","amp;dn":"Katy+Perry+-+The+One+That+Got+Away+%2839th+Annual+American+Music+A","amp;tr":["udp%3A%2F%2Ftracker.openbittorrent.com%3A80","udp%3A%2F%2Fopen.demonii.com%3A1337","udp%3A%2F%2Ftracker.coppersurfer.tk%3A6969","udp%3A%2F%2Fexodus.desync.com%3A6969"],"infoHash":"66ce953bf8a866e97cef08d133ae5f8d58314d10","infoHashBuffer":{"type":"Buffer","data":[102,206,149,59,248,168,102,233,124,239,8,209,51,174,95,141,88,49,77,16]},"announce":[],"urlList":[]}}